<?xml version="1.0" encoding="utf-8"?>
<!-- Generator: Adobe Illustrator 23.0.2, SVG Export Plug-In . SVG Version: 6.00 Build 0)  -->
<svg version="1.1" id="Layer_1" xmlns="http://www.w3.org/2000/svg" xmlns:xlink="http://www.w3.org/1999/xlink" x="0px" y="0px"
	 viewBox="0 0 130.7 66.7" style="enable-background:new 0 0 130.7 66.7;" xml:space="preserve">
<style type="text/css">
	.st0{fill:none;stroke:#19FF00;stroke-miterlimit:10;}
</style>
<path class="st0" d="M127.2,21.7c-2.9,2.7-6.8,2-9.6-0.5c-1.7-1.5-3.3-2.9-5.2-4c-6.4-3.8-14.5-3.8-21.4-1.4c-2.7,0.9-5.2,2.9-7.1,5
	C83,22,82,23,81.1,24.2c-1.8,2.2-3.5,4.6-5.2,6.9c-1.7,2.3-3.5,4.6-5.3,6.8c-3.7,4.4-7.7,8.5-11.7,12.6c-4.1,4.3-8.3,8.3-13.6,11.1
	c-0.8,0.4-1.6,0.8-2.5,1.1c-6.7,2.7-14.2,3.2-21.2,1.7c-1.8-0.4-3.5-0.9-5.2-1.6c-1.7-0.6-3.3-1.4-4.9-2.3c-1.6-0.9-3-1.9-4.5-3
	c-1.4-1.1-2.7-2.3-3.9-3.6l0,0c-2.5-2.6-2.4-6.8,0.3-9.2c2-1.8,4.9-2.2,7.4-1.1c2.8,1.3,4.6,4.3,7.4,5.8c2,1.1,4.1,2,6.3,2.4
	c2.1,0.4,4.6,0.6,6.8,0.3c2.2-0.2,4.4-1,6.4-1.9c0.5-0.2,1-0.5,1.5-0.8c3.7-2,6.4-5.2,9.5-8.1c2.1-2,4.4-3.8,6.6-5.6
	c1.1-1,2.2-1.9,3.2-2.9c1-1,2-2,3-3.1c1-1,1.9-2.1,2.8-3.2c0.9-1.1,1.8-2.2,2.7-3.4l2.6-3.5c0.8-1.2,1.7-2.3,2.6-3.5
	c4.2-5.2,9.3-10.2,15.8-12.5c6.8-2.6,14.2-3.1,21.2-1.6c1.8,0.4,3.5,0.9,5.2,1.6c1.7,0.6,3.3,1.4,4.9,2.3c1.6,0.9,3,1.9,4.4,3
	c1.4,1.1,2.7,2.3,3.9,3.6C130,15.1,129.9,19.2,127.2,21.7"/>
<path class="st0" d="M29.6,33.7c-6.8,0-12.4-5.5-12.4-12.2S20,8.1,29.6,9.3c6.8,0.9,11.1,5.6,12.4,12.2
	C43.8,30.8,36.4,33.7,29.6,33.7"/>
<path class="st0" d="M113.5,44.6c-1.5,6.6-5.6,12.2-12.4,12.2c-6.8,0-13.7-1.5-12.4-12.2c0.8-6.7,5.6-12.2,12.4-12.2
	C108,32.4,115,38.1,113.5,44.6"/>
</svg>
