<?xml version="1.0" encoding="utf-8"?>
<!-- Generator: Adobe Illustrator 23.0.2, SVG Export Plug-In . SVG Version: 6.00 Build 0)  -->
<svg version="1.1" id="Layer_1" xmlns="http://www.w3.org/2000/svg" xmlns:xlink="http://www.w3.org/1999/xlink" x="0px" y="0px"
	 viewBox="0 0 272 64" style="enable-background:new 0 0 272 64;" xml:space="preserve">
<style type="text/css">
	.st0{fill:#ED412B;}
	.st1{fill:#80756D;}
	.st2{fill:#00C68D;}
	.st3{fill:#FFB600;}
</style>
<rect x="201.6" y="57.6" class="st0" width="6.4" height="6.4"/>
<rect x="163.2" y="57.6" class="st1" width="6.4" height="6.4"/>
<rect x="182.4" y="57.6" class="st2" width="6.4" height="6.4"/>
<rect x="144" y="57.6" class="st3" width="6.4" height="6.4"/>
<polygon class="st1" points="164.12,1.24 156.57,21.84 151.55,21.84 144,1.24 148.43,1.24 154.09,17.62 159.73,1.24 "/>
<rect x="165.3" y="5.49" class="st1" width="4.13" height="16.35"/>
<path class="st1" d="M185.99,7.1c1.2,1.23,1.8,2.95,1.8,5.15v9.59h-4.13v-9.03c0-1.3-0.32-2.3-0.97-2.99
	c-0.65-0.7-1.53-1.05-2.66-1.05c-1.14,0-2.04,0.35-2.7,1.05c-0.66,0.7-0.99,1.7-0.99,2.99v9.03h-4.13V5.49h4.13v2.04
	c0.55-0.71,1.25-1.26,2.11-1.67c0.86-0.4,1.79-0.6,2.82-0.6C183.21,5.25,184.79,5.87,185.99,7.1"/>
<path class="st1" d="M190.21,9.22c0.69-1.27,1.64-2.25,2.86-2.95c1.22-0.7,2.62-1.05,4.19-1.05c2.03,0,3.7,0.51,5.03,1.52
	c1.33,1.01,2.22,2.43,2.67,4.26h-4.46c-0.24-0.71-0.63-1.26-1.19-1.67c-0.56-0.4-1.25-0.6-2.08-0.6c-1.18,0-2.11,0.43-2.8,1.28
	c-0.69,0.86-1.03,2.07-1.03,3.64c0,1.55,0.34,2.76,1.03,3.61c0.69,0.86,1.62,1.28,2.8,1.28c1.67,0,2.76-0.75,3.27-2.24h4.46
	c-0.45,1.77-1.35,3.18-2.68,4.22c-1.34,1.04-3.01,1.56-5.02,1.56c-1.57,0-2.97-0.35-4.19-1.05c-1.22-0.7-2.17-1.68-2.86-2.95
	c-0.69-1.27-1.03-2.75-1.03-4.44C189.18,11.97,189.52,10.49,190.21,9.22"/>
<path class="st1" d="M221.96,5.49v16.35h-4.16v-2.07c-0.53,0.71-1.22,1.26-2.08,1.67c-0.86,0.4-1.78,0.6-2.79,0.6
	c-1.28,0-2.41-0.27-3.39-0.81c-0.98-0.54-1.76-1.34-2.32-2.39c-0.56-1.05-0.84-2.31-0.84-3.76V5.49h4.13v9c0,1.3,0.32,2.3,0.97,3
	c0.65,0.7,1.53,1.05,2.66,1.05c1.14,0,2.04-0.35,2.69-1.05c0.65-0.7,0.97-1.7,0.97-3v-9H221.96z"/>
<rect x="224.55" class="st1" width="4.13" height="21.84"/>
<path class="st1" d="M234.29,21.05c-1.26-0.7-2.25-1.69-2.97-2.97c-0.72-1.28-1.08-2.75-1.08-4.43c0-1.67,0.37-3.15,1.11-4.43
	c0.74-1.28,1.75-2.27,3.02-2.97c1.28-0.7,2.7-1.05,4.28-1.05c1.57,0,3,0.35,4.28,1.05c1.28,0.7,2.29,1.69,3.02,2.97
	c0.74,1.28,1.11,2.75,1.11,4.43c0,1.67-0.38,3.15-1.14,4.43c-0.76,1.28-1.78,2.27-3.07,2.97c-1.29,0.7-2.73,1.05-4.32,1.05
	C236.97,22.1,235.55,21.75,234.29,21.05 M240.65,17.96c0.66-0.36,1.18-0.91,1.58-1.64c0.39-0.73,0.59-1.61,0.59-2.66
	c0-1.55-0.41-2.75-1.22-3.59c-0.82-0.84-1.81-1.25-3-1.25c-1.18,0-2.17,0.42-2.97,1.25c-0.8,0.84-1.2,2.03-1.2,3.59
	c0,1.55,0.39,2.75,1.17,3.59c0.78,0.84,1.76,1.25,2.94,1.25C239.29,18.5,239.99,18.32,240.65,17.96"/>
<polygon class="st1" points="165.28,3.8 165.28,1.24 169.44,1.24 "/>
<path class="st1" d="M157.13,44.04h-7.75l-1.28,3.71H144l7-19.48h4.54l7,19.48h-4.12L157.13,44.04z M156.07,40.92l-2.81-8.14
	l-2.81,8.14H156.07z"/>
<path class="st1" d="M187.52,33.83c1.16,1.16,1.74,2.78,1.74,4.86v9.06h-3.9v-8.53c0-1.21-0.31-2.13-0.92-2.77
	c-0.61-0.64-1.45-0.96-2.51-0.96c-1.06,0-1.9,0.32-2.52,0.96c-0.62,0.64-0.93,1.57-0.93,2.77v8.53h-3.9v-8.53
	c0-1.21-0.31-2.13-0.92-2.77c-0.61-0.64-1.45-0.96-2.51-0.96c-1.08,0-1.93,0.32-2.55,0.96c-0.62,0.64-0.93,1.57-0.93,2.77v8.53h-3.9
	V32.31h3.9v1.87c0.5-0.65,1.15-1.16,1.94-1.53c0.79-0.37,1.66-0.56,2.61-0.56c1.21,0,2.29,0.26,3.23,0.77
	c0.95,0.51,1.68,1.24,2.2,2.19c0.5-0.89,1.23-1.61,2.19-2.15c0.96-0.54,1.99-0.81,3.11-0.81C184.83,32.09,186.36,32.67,187.52,33.83
	"/>
<path class="st1" d="M197.55,32.76c0.88-0.46,1.89-0.7,3.02-0.7c1.32,0,2.51,0.33,3.58,0.98c1.07,0.65,1.91,1.57,2.54,2.77
	c0.62,1.2,0.93,2.59,0.93,4.17c0,1.58-0.31,2.98-0.93,4.19c-0.62,1.22-1.47,2.16-2.54,2.83c-1.07,0.67-2.26,1-3.58,1
	c-1.15,0-2.16-0.23-3.02-0.68c-0.86-0.46-1.56-1.05-2.08-1.77v2.2h-3.9V27.13h3.9v7.44C195.98,33.82,196.67,33.22,197.55,32.76
	 M203.07,37.56c-0.38-0.68-0.88-1.19-1.5-1.55c-0.62-0.35-1.3-0.53-2.02-0.53c-0.71,0-1.37,0.18-1.99,0.54
	c-0.62,0.36-1.12,0.89-1.51,1.57c-0.38,0.69-0.57,1.5-0.57,2.42s0.19,1.74,0.57,2.42c0.38,0.69,0.88,1.21,1.51,1.58
	c0.62,0.36,1.29,0.54,1.99,0.54c0.72,0,1.4-0.19,2.02-0.56c0.62-0.37,1.12-0.9,1.5-1.59c0.38-0.69,0.57-1.51,0.57-2.45
	C203.64,39.05,203.45,38.24,203.07,37.56"/>
<path class="st1" d="M209.34,29.81c-0.46-0.44-0.68-0.98-0.68-1.63c0-0.65,0.23-1.19,0.68-1.63c0.46-0.44,1.03-0.66,1.71-0.66
	c0.69,0,1.26,0.22,1.71,0.66c0.45,0.44,0.68,0.98,0.68,1.63c0,0.65-0.23,1.19-0.68,1.63c-0.46,0.44-1.03,0.66-1.71,0.66
	C210.37,30.47,209.8,30.25,209.34,29.81 M212.98,47.75h-3.9V32.31h3.9V47.75z"/>
<path class="st1" d="M229.67,41.2h-11.29c0.09,1.11,0.48,1.99,1.17,2.62c0.69,0.63,1.53,0.95,2.54,0.95c1.45,0,2.48-0.62,3.09-1.87
	h4.21c-0.45,1.49-1.3,2.71-2.56,3.67c-1.26,0.96-2.81,1.44-4.65,1.44c-1.49,0-2.82-0.33-4-0.99c-1.18-0.66-2.1-1.59-2.76-2.8
	c-0.66-1.21-0.99-2.6-0.99-4.18c0-1.6,0.32-3,0.98-4.21c0.65-1.21,1.56-2.14,2.73-2.79c1.17-0.65,2.52-0.98,4.04-0.98
	c1.47,0,2.78,0.32,3.94,0.95c1.16,0.63,2.06,1.53,2.7,2.69c0.64,1.16,0.96,2.49,0.96,4C229.78,40.25,229.75,40.75,229.67,41.2
	 M225.74,38.58c-0.02-1-0.38-1.81-1.09-2.41c-0.71-0.6-1.57-0.91-2.59-0.91c-0.97,0-1.78,0.29-2.44,0.88
	c-0.66,0.59-1.06,1.4-1.21,2.44H225.74z"/>
<path class="st1" d="M244.25,33.83c1.13,1.16,1.7,2.78,1.7,4.86v9.06h-3.9v-8.53c0-1.23-0.31-2.17-0.92-2.83
	c-0.61-0.66-1.45-0.99-2.51-0.99c-1.08,0-1.93,0.33-2.55,0.99c-0.62,0.66-0.93,1.6-0.93,2.83v8.53h-3.9V32.31h3.9v1.92
	c0.52-0.67,1.18-1.19,1.99-1.58c0.81-0.38,1.7-0.57,2.66-0.57C241.63,32.09,243.11,32.67,244.25,33.83"/>
<path class="st1" d="M252.77,35.51v7.47c0,0.52,0.13,0.9,0.38,1.13c0.25,0.23,0.67,0.35,1.27,0.35h1.81v3.29h-2.45
	c-3.29,0-4.93-1.6-4.93-4.79v-7.44H247v-3.21h1.84v-3.82h3.93v3.82h3.46v3.21H252.77z"/>
<path class="st1" d="M271.89,41.2H260.6c0.09,1.11,0.48,1.99,1.17,2.62c0.69,0.63,1.53,0.95,2.54,0.95c1.45,0,2.48-0.62,3.09-1.87
	h4.21c-0.45,1.49-1.3,2.71-2.56,3.67c-1.26,0.96-2.81,1.44-4.65,1.44c-1.49,0-2.82-0.33-4-0.99c-1.18-0.66-2.1-1.59-2.76-2.8
	c-0.66-1.21-0.99-2.6-0.99-4.18c0-1.6,0.32-3,0.98-4.21c0.65-1.21,1.56-2.14,2.73-2.79c1.17-0.65,2.52-0.98,4.04-0.98
	c1.47,0,2.78,0.32,3.94,0.95c1.16,0.63,2.06,1.53,2.7,2.69c0.64,1.16,0.96,2.49,0.96,4C272,40.25,271.96,40.75,271.89,41.2
	 M267.96,38.58c-0.02-1-0.38-1.81-1.09-2.41c-0.71-0.6-1.57-0.91-2.59-0.91c-0.97,0-1.78,0.29-2.44,0.88
	c-0.66,0.59-1.06,1.4-1.21,2.44H267.96z"/>
<path class="st1" d="M125.91,20.63c-2.93,2.72-6.82,1.97-9.61-0.46c-1.68-1.46-3.3-2.89-5.22-4.02c-6.45-3.79-14.47-3.78-21.4-1.38
	c-2.74,0.95-5.24,2.86-7.11,5.05c-0.93,1.09-1.88,2.15-2.77,3.28c-1.82,2.22-3.5,4.56-5.23,6.86c-1.69,2.33-3.48,4.57-5.33,6.76
	c-3.71,4.36-7.72,8.46-11.68,12.61c-4.12,4.32-8.28,8.32-13.63,11.07c-0.82,0.37-1.63,0.77-2.47,1.08
	c-6.7,2.66-14.19,3.24-21.21,1.66c-1.76-0.38-3.48-0.91-5.16-1.56c-1.68-0.64-3.31-1.43-4.86-2.32c-1.57-0.88-3.04-1.92-4.46-3.02
	c-1.41-1.1-2.69-2.34-3.93-3.63L1.8,52.57c-2.51-2.62-2.39-6.76,0.28-9.24c1.98-1.84,4.92-2.22,7.36-1.12
	c2.83,1.27,4.63,4.3,7.39,5.85c1.96,1.13,4.09,1.97,6.32,2.41c2.07,0.41,4.6,0.62,6.77,0.34c2.25-0.24,4.42-0.95,6.39-1.93
	c0.5-0.23,0.97-0.52,1.46-0.78c3.73-1.97,6.44-5.24,9.49-8.06c2.11-1.96,4.38-3.77,6.58-5.64c1.09-0.95,2.18-1.88,3.22-2.87
	c1.05-0.99,2.04-2.01,3.03-3.06c0.97-1.05,1.93-2.11,2.82-3.24c0.92-1.09,1.79-2.24,2.67-3.38l2.55-3.48
	c0.85-1.16,1.69-2.34,2.58-3.46c4.22-5.25,9.31-10.2,15.79-12.49c6.76-2.57,14.22-3.12,21.25-1.56c1.76,0.38,3.48,0.92,5.16,1.56
	c1.69,0.63,3.31,1.43,4.87,2.32c1.57,0.87,3.04,1.91,4.45,3.01c1.41,1.11,2.7,2.35,3.93,3.63
	C128.71,14.02,128.58,18.15,125.91,20.63"/>
<path class="st1" d="M28.25,32.64c-6.84,0-12.39-5.46-12.39-12.2c0-6.74,2.79-13.46,12.39-12.2c6.78,0.89,11.09,5.59,12.39,12.2
	C42.48,29.73,35.1,32.64,28.25,32.64"/>
<path class="st1" d="M112.18,43.57c-1.47,6.58-5.55,12.2-12.39,12.2c-6.84,0-13.65-1.46-12.39-12.2c0.78-6.69,5.55-12.2,12.39-12.2
	C106.63,31.37,113.65,36.99,112.18,43.57"/>
</svg>
